<svg xmlns="http://www.w3.org/2000/svg" width="15.48" height="17.392" viewBox="0 0 15.48 17.392"><defs><style>.a{fill:#fff;}</style></defs><g transform="translate(0)"><path class="a" d="M95.721,8.451A3.359,3.359,0,0,0,98.373,6.8a5.659,5.659,0,0,0,1.051-3.1,3.7,3.7,0,1,0-7.4,0A5.659,5.659,0,0,0,93.07,6.8,3.359,3.359,0,0,0,95.721,8.451Zm0-7.847a3.1,3.1,0,0,1,3.1,3.1,5.109,5.109,0,0,1-.941,2.754,2.369,2.369,0,0,1-4.315,0A5.109,5.109,0,0,1,92.623,3.7,3.1,3.1,0,0,1,95.721.6Z" transform="translate(-89.271)"/><path class="a" d="M208.742,387.157h0a.3.3,0,1,0,.116.355A.3.3,0,0,0,208.741,387.156Z" transform="translate(-200.846 -371.526)"/><path class="a" d="M35.308,194.12H35.22a6.5,6.5,0,0,0-2.249-1.775.3.3,0,0,0-.343.059,3.209,3.209,0,0,1-4.853,0,.3.3,0,0,0-.343-.059,6.45,6.45,0,0,0-3.681,5.826v.005a.3.3,0,0,0,.1.224,9.435,9.435,0,0,0,6.351,2.45c.124,0,.25,0,.373-.007a.3.3,0,1,0-.023-.6c-.116,0-.233.007-.35.007a8.832,8.832,0,0,1-5.845-2.2,5.845,5.845,0,0,1,3.15-5.06,3.77,3.77,0,0,0,5.39,0,5.9,5.9,0,0,1,1.6,1.221,3.926,3.926,0,1,0,.813-.085Zm0,7.245a3.32,3.32,0,1,1,3.32-3.32A3.324,3.324,0,0,1,35.308,201.365Z" transform="translate(-23.752 -184.577)"/></g></svg>