<svg xmlns="http://www.w3.org/2000/svg" width="26" height="29.211" viewBox="0 0 26 29.211"><defs><style>.a{fill:#707070;}</style></defs><path class="a" d="M98.237,14.194a5.642,5.642,0,0,0,4.454-2.767,9.506,9.506,0,0,0,1.765-5.209,6.218,6.218,0,1,0-12.437,0,9.506,9.506,0,0,0,1.765,5.209A5.642,5.642,0,0,0,98.237,14.194Zm0-13.18a5.21,5.21,0,0,1,5.2,5.2,8.581,8.581,0,0,1-1.581,4.626,3.979,3.979,0,0,1-7.247,0,8.58,8.58,0,0,1-1.581-4.626A5.21,5.21,0,0,1,98.237,1.014Z" transform="translate(-87.404)"/><path class="a" d="M209.061,387.191h0a.507.507,0,1,0,.2.6A.511.511,0,0,0,209.059,387.19Z" transform="translate(-195.799 -360.938)"/><path class="a" d="M43.161,195.346l-.147,0a10.912,10.912,0,0,0-3.777-2.981.507.507,0,0,0-.576.1,5.785,5.785,0,0,1-4.076,1.862,5.782,5.782,0,0,1-4.075-1.862.507.507,0,0,0-.576-.1,10.833,10.833,0,0,0-6.182,9.785v.009a.507.507,0,0,0,.166.376,15.847,15.847,0,0,0,10.667,4.114c.209,0,.42,0,.627-.012a.507.507,0,1,0-.039-1.013c-.194.008-.392.011-.588.011a14.835,14.835,0,0,1-9.817-3.7,9.818,9.818,0,0,1,5.29-8.5,6.332,6.332,0,0,0,9.054,0,9.9,9.9,0,0,1,2.683,2.051,6.593,6.593,0,1,0,1.366-.143Zm0,12.168a5.577,5.577,0,1,1,5.577-5.577A5.583,5.583,0,0,1,43.161,207.514Z" transform="translate(-23.752 -179.316)"/><path class="a" d="M250.056,269.1h-3.7v-3.7a.507.507,0,0,0-1.014,0v3.7h-3.7a.507.507,0,0,0,0,1.014h3.7v3.7a.507.507,0,1,0,1.014,0v-3.7h3.7a.507.507,0,1,0,0-1.014Z" transform="translate(-226.441 -246.985)"/></svg>