<svg xmlns="http://www.w3.org/2000/svg" width="21.828" height="25.896" viewBox="0 0 21.828 25.896"><defs><style>.a{fill:#212121;}</style></defs><g transform="translate(-29.852)"><g transform="translate(29.852 0)"><path class="a" d="M49.582,18.972h-.188V10.9a8.669,8.669,0,0,0-5.911-8.175l.008,0a2.725,2.725,0,0,0-5.45,0,8.669,8.669,0,0,0-5.9,8.189v8.069H31.95a2.09,2.09,0,0,0-1.482.616l-.022.025a2.1,2.1,0,0,0,1.5,3.554h6.715v.61a2.1,2.1,0,0,0,.619,1.491l.025.022a2.105,2.105,0,0,0,3.57-1.512v-.61h6.709a2.1,2.1,0,0,0,0-4.2ZM40.362,1.031a1.894,1.894,0,0,1,2.254,1.446,8.566,8.566,0,0,0-1.485-.193h-.365v0h-.308a8.571,8.571,0,0,0-1.542.2A1.894,1.894,0,0,1,40.362,1.031Zm-7.4,9.878a7.824,7.824,0,0,1,7.5-7.794h.3V3.12h.3a7.824,7.824,0,0,1,7.5,7.794v8.058h-15.6Zm8.7,13.77a1.275,1.275,0,0,1-1.788.019l-.019-.019a1.275,1.275,0,0,1-.376-.9v-.61h2.556l0,.61A1.275,1.275,0,0,1,41.671,24.679Zm8.81-2.714a1.264,1.264,0,0,1-.9.371H31.95a1.268,1.268,0,0,1-.916-2.145l.019-.016a1.265,1.265,0,0,1,.894-.373H49.582a1.27,1.27,0,0,1,.9,2.164Z" transform="translate(-29.852 0)"/></g></g></svg>