<svg xmlns="http://www.w3.org/2000/svg" width="24.319" height="26.432" viewBox="0 0 24.319 26.432"><defs><style>.a{fill:#707070;}</style></defs><g transform="translate(0)"><path class="a" d="M22.017,18.011h0c-.76,0-1.189-.395-1.435-1.318a16.987,16.987,0,0,1-.268-3.763A24.353,24.353,0,0,0,19.853,7.4a.393.393,0,0,0-.763.187,23.763,23.763,0,0,1,.437,5.346,17.4,17.4,0,0,0,.295,3.96,3.154,3.154,0,0,0,.516,1.116H3.981A3.154,3.154,0,0,0,4.5,16.894a17.387,17.387,0,0,0,.295-3.96c.014-2.292.03-4.889.968-6.877,1.055-2.238,3.149-3.326,6.4-3.326a8.365,8.365,0,0,1,4.343,1,5.269,5.269,0,0,1,2.133,2.494.393.393,0,0,0,.719-.316,6.11,6.11,0,0,0-2.446-2.85,7.45,7.45,0,0,0-2.418-.9,2.338,2.338,0,0,0-4.662,0A7.521,7.521,0,0,0,7.507,3,6.054,6.054,0,0,0,5.049,5.722C4.037,7.867,4.02,10.556,4.006,12.929a16.975,16.975,0,0,1-.268,3.763c-.246.923-.675,1.318-1.435,1.318h0a2.3,2.3,0,0,0,0,4.6H4.786a.393.393,0,1,0,0-.785H2.3a1.516,1.516,0,0,1,0-3.033H22.017a1.516,1.516,0,0,1,0,3.033H6.356a.393.393,0,0,0,0,.785H7.968a4.21,4.21,0,0,0,8.383,0h5.666a2.3,2.3,0,0,0,0-4.6ZM12.159.785a1.556,1.556,0,0,1,1.523,1.247,13.465,13.465,0,0,0-3.046,0A1.556,1.556,0,0,1,12.159.785Zm0,24.862a3.43,3.43,0,0,1-3.4-3.033h6.8a3.43,3.43,0,0,1-3.4,3.033Zm0,0" transform="translate(0 0)"/><path class="a" d="M353.944,34.211a5.092,5.092,0,0,1,1.394,1.329,7.549,7.549,0,0,1,1.388,4.608.393.393,0,1,0,.785,0,8.329,8.329,0,0,0-1.57-5.113,5.738,5.738,0,0,0-1.615-1.511.393.393,0,0,0-.381.687Zm0,0" transform="translate(-335.481 -31.747)"/><path class="a" d="M411.718,37.239a4.158,4.158,0,0,1,1.547,3.543.393.393,0,0,0,.785,0,4.916,4.916,0,0,0-1.909-4.2.393.393,0,0,0-.423.661Zm0,0" transform="translate(-390.294 -34.632)"/><path class="a" d="M44.74,40.54a.393.393,0,0,0,.393-.393,7.55,7.55,0,0,1,1.388-4.608,5.109,5.109,0,0,1,1.393-1.329.393.393,0,0,0-.381-.687,5.738,5.738,0,0,0-1.615,1.511,8.331,8.331,0,0,0-1.57,5.113A.393.393,0,0,0,44.74,40.54Zm0,0" transform="translate(-42.058 -31.746)"/><path class="a" d="M11.283,41.175a.392.392,0,0,0,.392-.392,4.157,4.157,0,0,1,1.547-3.543.393.393,0,0,0-.423-.661,4.916,4.916,0,0,0-1.909,4.2.393.393,0,0,0,.393.392Zm0,0" transform="translate(-10.328 -34.632)"/></g></svg>