<svg xmlns="http://www.w3.org/2000/svg" width="30" height="30" viewBox="0 0 38 38"><path d="M19,0A19,19,0,1,0,38,19,19.022,19.022,0,0,0,19,0Zm0,36.417A17.417,17.417,0,1,1,36.417,19,17.436,17.436,0,0,1,19,36.417Z"/><path d="M164.936,149.565a.791.791,0,0,0-1.119,0l-6.565,6.565-6.565-6.565a.792.792,0,0,0-1.119,1.119l6.565,6.565-6.565,6.565a.792.792,0,0,0,1.12,1.119l6.565-6.565,6.565,6.565a.792.792,0,1,0,1.12-1.119l-6.565-6.565,6.565-6.565A.791.791,0,0,0,164.936,149.565Z" transform="translate(-138.252 -138.25)"/></svg>