<svg xmlns="http://www.w3.org/2000/svg" fill="white" width="57.84" height="45.385" viewBox="0 0 67.84 55.385">
<g transform="translate(0 0)">
<path d="M264.664,254.714h18.085a1.068,1.068,0,0,0,1.13-1.13V243.411a1.068,1.068,0,0,0-1.13-1.13H264.664a1.068,1.068,0,0,0-1.13,1.13v10.173A1.068,1.068,0,0,0,264.664,254.714Zm1.13-10.173h15.824v7.912H265.795Z"
 transform="translate(-228.494 -216.284)"/>
 <path d="M34.264,210.408h9.043a1.13,1.13,0,0,0,0-2.261H34.264a1.13,1.13,0,0,0,0,2.261Z" transform="translate(-28.613 -186.671)"/>
 <path d="M136.664,210.408h9.043a1.13,1.13,0,0,0,0-2.261h-9.043a1.13,1.13,0,0,0,0,2.261Z" transform="translate(-117.449 -186.671)"/>
 <path d="M34.264,244.542H48.958a1.13,1.13,0,1,0,0-2.261H34.264a1.13,1.13,0,1,0,0,2.261Z" transform="translate(-28.613 -216.284)"/>
 <path d="M182.721,242.28H179.33a1.13,1.13,0,1,0,0,2.261h3.391a1.13,1.13,0,0,0,0-2.261Z" transform="translate(-154.463 -216.283)"/>
 <path d="M65.8,58a4.211,4.211,0,0,0-3.052-1.7l-2.713-.329V50.535a4.535,4.535,0,0,0-4.521-4.521H3.521A4.534,4.534,0,0,0-1,50.535v36.17a4.538,4.538,0,0,0,3.239,4.334,4.4,4.4,0,0,0,4,4.483l52.22,5.878h.452a4.526,4.526,0,0,0,4.521-3.843l3.391-36.283A4.393,4.393,0,0,0,65.8,58ZM1.261,53.926H57.776v6.782H1.261Zm2.261-5.652H55.515a2.267,2.267,0,0,1,2.261,2.261v1.13H1.261v-1.13A2.267,2.267,0,0,1,3.521,48.275ZM1.261,86.705V62.969H57.776V86.705a2.267,2.267,0,0,1-2.261,2.261H3.521A2.267,2.267,0,0,1,1.261,86.705Zm63.3-25.884L61.167,97.1a2.28,2.28,0,0,1-2.487,2.035L6.573,93.261a2.285,2.285,0,0,1-2.035-2.035H55.515a4.535,4.535,0,0,0,4.521-4.521v-28.6l2.6.226a1.932,1.932,0,0,1,1.469.791A2.289,2.289,0,0,1,64.558,60.821Z" transform="translate(1 -46.014)"/></g></svg>