<svg xmlns="http://www.w3.org/2000/svg" width="18.333" height="10.695" viewBox="0 0 18.333 10.695"><g transform="translate(0 0)"><path d="M18.266,111.792c-.144-.21-3.614-5.13-9.1-5.13-4.706,0-8.9,4.892-9.077,5.1a.383.383,0,0,0,0,.493c.176.209,4.37,5.1,9.077,5.1s8.9-4.892,9.077-5.1A.382.382,0,0,0,18.266,111.792Zm-9.1,4.8c-3.773,0-7.36-3.6-8.271-4.583.91-.986,4.493-4.583,8.271-4.583,4.415,0,7.531,3.593,8.291,4.563C16.58,112.943,12.972,116.593,9.167,116.593Z" transform="translate(0 -106.662)"/></g><g transform="translate(6.111 2.292)"><g transform="translate(0 0)"><path d="M173.718,170.662a3.056,3.056,0,1,0,3.056,3.056A3.059,3.059,0,0,0,173.718,170.662Zm0,5.347a2.292,2.292,0,1,1,2.292-2.292A2.294,2.294,0,0,1,173.718,176.009Z" transform="translate(-170.662 -170.662)"/></g></g></svg>