<svg id="Layer_1" data-name="Layer 1" xmlns="http://www.w3.org/2000/svg" viewBox="0 0 407.76 173.52"><defs><style>.cls-1{fill:#fff;}</style></defs><path class="cls-1" d="M2588.94,488.64v51.12H2182.26a5.21,5.21,0,0,1-1.08-.23,1.66,1.66,0,0,1,1.39-.57c.84,0,1.68,0,2.52,0h132c3.56,0,3.66-.11,3.66-3.61V370.08c0-2.7-.31-3-3.06-3h-132.6c-.84,0-1.68,0-2.52,0a1.65,1.65,0,0,1-1.38-.57c0-.08.07-.22.12-.23.28,0,.56,0,.84,0h406.8V486.48c-1,0-.76-.85-.82-1.41a22.72,22.72,0,0,0-4.9-12.29,34,34,0,0,0-9-7.49c-4.82-2.93-9.93-5.34-14.73-8.31a59.66,59.66,0,0,1-8.64-6.24c-4.35-3.92-6.81-8.73-6.66-14.68a17.06,17.06,0,0,1,1.77-7.53c1.84-3.57,4.89-5.43,8.71-6.23a25.75,25.75,0,0,1,14.82,1c6.4,2.45,9.93,7.33,11.63,13.79a46.3,46.3,0,0,1,.9,8.12c-.66-6.57-.37-13.14-.4-19.35a3.34,3.34,0,0,1-4.23,2,9.08,9.08,0,0,1-3-1.73c-4.89-3.75-10.48-4.88-16.47-4.31a23.83,23.83,0,0,0-15.25,7.24,18.75,18.75,0,0,0-4.64,8.67,23.4,23.4,0,0,0,.94,15c1.71,4.17,4.83,7.22,8.31,9.9a79.3,79.3,0,0,0,11.47,7c4.55,2.43,9.12,4.84,13.14,8.12,4.35,3.55,7.47,7.89,8.37,13.56a24.88,24.88,0,0,1-.67,11.63c-1.47,4.59-4.26,8-9.05,9.49-8,2.55-15.76,2.32-23.24-1.65a14.66,14.66,0,0,1-5.78-6.27,34.07,34.07,0,0,1-4.08-18c0-.66-.14-1.32-.11-2s0-1.28,0-1.65c-.07,2.8.12,5.87,0,8.94s-.25,6.39-.43,9.57,0,6.37-.93,9.48a2.8,2.8,0,0,0,.16-.68c.24-2.16,1.12-2.88,3.28-2.7a8.17,8.17,0,0,1,2.84.92c2.51,1.21,5,2.51,7.56,3.59a28,28,0,0,0,12.53,2,25.78,25.78,0,0,0,8.86-1.84c9.84-4.2,15.84-11.35,16.92-22.24C2588.18,489.4,2588,488.64,2588.94,488.64Z" transform="translate(-2181.18 -366.24)"/><path d="M2181.18,366.48c.51,0,1-.06,1.55-.06h138.55V539.53c-.44,0-.86.06-1.28.06H2182.85c-.56,0-1.12-.05-1.67-.07Z" transform="translate(-2181.18 -366.24)"/><path d="M2588.94,488.64a56.87,56.87,0,0,1-1,6c-3,10.66-10.17,16.81-20.85,19-7.89,1.6-15.41.2-22.56-3.41-1.25-.62-2.51-1.24-3.81-1.74-2.62-1-4-.18-4.51,2.6a3,3,0,0,1-.46,1.31q.77-15.81,1.52-31.62h.26c.1,2.53.16,5.06.33,7.59a41,41,0,0,0,2.95,13.4c3.21,7.51,9,11.36,17.05,12a29.41,29.41,0,0,0,10.23-.79c6.06-1.65,10-5.47,11.27-11.65,1.61-7.7.42-14.81-5.25-20.7a42.17,42.17,0,0,0-9.72-7.16c-5.06-2.9-10.22-5.64-15.19-8.69a27.47,27.47,0,0,1-10-10,22.16,22.16,0,0,1,16.5-32.92c6.77-.91,13.14,0,18.89,4a12.93,12.93,0,0,0,2.09,1.16c2.33,1,4,.28,4.75-2.16a3.65,3.65,0,0,1,.54-1.2v22.78h-.13c-.22-2-.38-4-.69-6a24.51,24.51,0,0,0-4.47-11.25c-3.85-5.07-9.19-7.12-15.37-7.23a25.08,25.08,0,0,0-5.48.41c-6.95,1.39-10.83,6.28-11,13.39s3.18,12.18,8.53,16.3a114.23,114.23,0,0,0,16.14,9.87,54.37,54.37,0,0,1,11.46,7.58,23.16,23.16,0,0,1,7.8,16c0,.35.12.69.18,1Z" transform="translate(-2181.18 -366.24)"/><path d="M2400.74,468c-.32,10.07-2.23,19.66-7.57,28.32-5.68,9.22-13.63,15.45-24.46,17.35-11.59,2-21.7-1.27-30.18-9.35-7.18-6.85-11.07-15.48-12.76-25.12-1.9-10.79-1.36-21.45,2.49-31.78,3.65-9.79,9.76-17.57,19.26-22.34a34.25,34.25,0,0,1,38.4,5.52c7.75,7.17,11.93,16.2,13.66,26.44C2400.18,460.65,2400.37,464.33,2400.74,468Z" transform="translate(-2181.18 -366.24)"/><path d="M2528.93,512.87H2502l0-.26h3.91c2.66,0,2.75-.12,2-2.62q-3.72-12.9-7.43-25.8c-.6-2.08-1-2.37-3.11-2.37h-19.55c-2,0-2.3.25-2.85,2.16l-7.77,26.7c-.46,1.59-.22,1.91,1.48,1.92,2.3,0,4.61,0,6.92.24h-14.79v-.23c1.2,0,2.4-.07,3.59,0,1.38.1,2-.54,2.38-1.8q4.26-14.73,8.59-29.44,8.59-29.4,17.18-58.79c.18-.61.32-1.06,1.15-1.08s1,.47,1.15,1.06q13.07,43.88,26.14,87.75c.67,2.24.72,2.28,3.08,2.28h4.84Z" transform="translate(-2181.18 -366.24)"/><path d="M2401.19,422.89h29.43v.26h-7.34c-1.52,0-1.78.36-1.37,1.81l7.29,25.59q6.09,21.32,12.19,42.64c.14.5.38,1,.57,1.46l.35,0a9.48,9.48,0,0,0,.48-1.14q10-34.22,20.06-68.43c.46-1.57.2-1.9-1.49-1.9a66.69,66.69,0,0,1-6.92-.26h14.76v.25h-3.45c-1.79,0-2,.17-2.52,1.88l-8.88,30.37q-8.4,28.75-16.82,57.51a2,2,0,0,1-.84,1.24c-.66.26-1.21.06-1.48-.86-2-6.94-4.11-13.86-6.18-20.79q-10-33.66-20.06-67.31c-.58-1.95-.71-2-2.76-2-1.67,0-3.34,0-5,0Z" transform="translate(-2181.18 -366.24)"/><path class="cls-1" d="M2249.5,482.67v30.17h-59.33v-.17h6.74a3,3,0,0,0,1.41-.1,4.46,4.46,0,0,0,1.13-1.3c.11-.17,0-.47,0-.71V425.36c0-2-.26-2.26-2.28-2.26-2.35,0-4.7,0-7.05-.21h30.27v.21h-3.69c-1.32,0-2.64,0-4,0s-1.62.48-1.65,1.71c0,.43,0,.87,0,1.31v84.12c0,2.16.26,2.43,2.39,2.42,5.84,0,11.68.08,17.51-.12,8.32-.29,13.4-4.31,16-12.25a60.47,60.47,0,0,0,2.29-15l.15-2.62Z" transform="translate(-2181.18 -366.24)"/><path class="cls-1" d="M2256.63,512.65h7c2,0,2.3-.3,2.3-2.27V425.31c0-1.9-.31-2.2-2.25-2.2-2.35,0-4.7,0-7.05-.2h30.25l0,.12a6.7,6.7,0,0,1-.77.08h-6.24c-2,0-2.29.26-2.29,2.26v80.87c0,1.52,0,3,0,4.56s.39,1.84,1.75,1.84c6.16,0,12.32.08,18.47-.13,7.79-.26,12.81-4.19,15.4-11.67a52.48,52.48,0,0,0,2.39-13.9,28.06,28.06,0,0,1,.48-4.26v4.06c0,8.28,0,16.56,0,24.84,0,1.12-.36,1.41-1.43,1.4q-28.5,0-57,0c-.35,0-.71,0-1.06,0Z" transform="translate(-2181.18 -366.24)"/><path class="cls-1" d="M2387.54,467.89c-.29,8.47-.66,16.9-2.71,25.14a49.33,49.33,0,0,1-2.81,8.26c-3.89,8.8-10.89,12.95-20.51,12.58-8.75-.34-14.7-4.68-18.31-12.49-2.75-6-3.89-12.32-4.53-18.79a147.12,147.12,0,0,1,0-29.45c.64-6.42,1.79-12.74,4.53-18.66,4.11-8.91,11-13,20.76-12.58,8.72.39,14.54,4.86,18.1,12.61a50.59,50.59,0,0,1,4.18,16.18C2386.86,456.41,2387.13,462.16,2387.54,467.89Z" transform="translate(-2181.18 -366.24)"/><path class="cls-1" d="M2488.08,441.13a8.65,8.65,0,0,1,.5,1.13q5.27,18.38,10.51,36.75c.57,2,.2,2.45-1.88,2.45q-9.6,0-19.19,0c-1.78,0-2.09-.39-1.59-2.08q5.4-18.58,10.84-37.16c.11-.36.28-.71.43-1.07Z" transform="translate(-2181.18 -366.24)"/></svg>