<svg xmlns="http://www.w3.org/2000/svg" width="22.333" height="12.75" viewBox="0 0 30.333 22.75"><defs><style>.a{fill:#707070;}</style></defs><path class="a" d="M27.806,64H2.528A2.53,2.53,0,0,0,0,66.528V84.222A2.53,2.53,0,0,0,2.528,86.75H27.806a2.53,2.53,0,0,0,2.528-2.528V66.528A2.53,2.53,0,0,0,27.806,64ZM2.528,65.264H27.806a1.2,1.2,0,0,1,.263.053c-2.188,2-9.445,8.641-11.984,10.929a1.268,1.268,0,0,1-1.835,0c-2.539-2.288-9.8-8.926-11.984-10.929a1.208,1.208,0,0,1,.263-.053ZM1.264,84.222V66.528a1.221,1.221,0,0,1,.071-.35c1.675,1.533,6.738,6.165,10.021,9.151C8.084,78.14,3.019,82.942,1.331,84.552A1.218,1.218,0,0,1,1.264,84.222Zm26.542,1.264H2.528a1.208,1.208,0,0,1-.285-.058c1.744-1.663,6.841-6.492,10.056-9.243.419.38.8.727,1.1,1a2.524,2.524,0,0,0,3.527,0c.3-.272.685-.619,1.1-1,3.215,2.75,8.311,7.579,10.056,9.243a1.208,1.208,0,0,1-.285.058Zm1.264-1.264a1.221,1.221,0,0,1-.067.329c-1.689-1.611-6.753-6.412-10.025-9.223,3.283-2.986,8.346-7.617,10.021-9.151a1.221,1.221,0,0,1,.071.35Z" transform="translate(0 -64)"/></svg>