<svg xmlns="http://www.w3.org/2000/svg" width="12.667" height="16.889" viewBox="0 0 12.667 16.889"><defs><style>.a{fill:#707070;}</style></defs><path class="a" d="M14.083,19.556h-9.5A1.585,1.585,0,0,1,3,17.972V10.583A1.585,1.585,0,0,1,4.583,9h9.5a1.585,1.585,0,0,1,1.583,1.583v7.389A1.585,1.585,0,0,1,14.083,19.556Zm-9.5-9.5a.528.528,0,0,0-.528.528v7.389a.528.528,0,0,0,.528.528h9.5a.528.528,0,0,0,.528-.528V10.583a.528.528,0,0,0-.528-.528Z" transform="translate(-3 -2.667)"/><path class="a" d="M13.917,7.389a.528.528,0,0,1-.528-.528V4.222a3.167,3.167,0,0,0-6.333,0V6.861A.528.528,0,1,1,6,6.861V4.222a4.222,4.222,0,0,1,8.444,0V6.861A.528.528,0,0,1,13.917,7.389Z" transform="translate(-3.889)"/><path class="a" d="M11.407,15.815a1.407,1.407,0,1,1,1.407-1.407A1.409,1.409,0,0,1,11.407,15.815Zm0-1.759a.352.352,0,1,0,.352.352A.352.352,0,0,0,11.407,14.056Z" transform="translate(-5.074 -3.852)"/><path class="a" d="M11.778,18.741a.528.528,0,0,1-.528-.528V16.278a.528.528,0,0,1,1.056,0v1.935A.528.528,0,0,1,11.778,18.741Z" transform="translate(-5.444 -4.667)"/></svg>