<svg xmlns="http://www.w3.org/2000/svg" width="24.999" height="24.999" viewBox="0 0 24.999 24.999"><defs><style>.a{fill:#293f8d;}</style></defs><g transform="translate(0.001 -0.002)"><g transform="translate(-0.001 0.002)"><path class="a" d="M24.332,4.059,20.923.647a2.323,2.323,0,0,0-3.215,0L2.436,16.071a.572.572,0,0,0-.143.244L.021,24.276a.569.569,0,0,0,.7.7L8.677,22.7a.571.571,0,0,0,.244-.143L24.332,7.275a2.275,2.275,0,0,0,0-3.216Zm-9.1.723,2.091,2.091L6.4,17.792,5.62,16.224a.568.568,0,0,0-.508-.314H4.2ZM1.394,23.6l.74-2.591,1.85,1.85Zm6.559-1.874-2.718.777L2.492,19.765l.776-2.719H4.761L5.74,19a.568.568,0,0,0,.254.254l1.959.979v1.493ZM9.089,20.8v-.91a.568.568,0,0,0-.314-.508L7.208,18.6,18.127,7.676l2.091,2.092ZM23.53,6.485,21.025,8.968,16.031,3.975l2.481-2.5a1.163,1.163,0,0,1,1.607,0L23.528,4.88a1.136,1.136,0,0,1,0,1.605Z" transform="translate(0.001 -0.002)"/></g></g></svg>