<svg xmlns="http://www.w3.org/2000/svg" width="30" height="26.001" viewBox="0 0 30 26.001"><defs><style>.a{fill:#707070;}</style></defs><path class="a" d="M24,66H43a.5.5,0,0,0,.489-.4l2.5-12A.5.5,0,0,0,45.5,53H21.572l-1.086-4.614A.5.5,0,0,0,20,48H16.5a.5.5,0,0,0,0,1h3.1l3.787,16.095A2,2,0,0,0,22,67v1a2,2,0,0,0,2,2h0a2.5,2.5,0,1,0,4,0H38a2.5,2.5,0,1,0,4,0h2a.5.5,0,1,0,0-1H24a1,1,0,0,1-1-1V67a1,1,0,0,1,1-1Zm.4-1-.471-2h2.758l.25,2H24.4Zm10.833-5-.083,2H31.854l-.083-2Zm-3.5-1-.083-2h3.707l-.083,2Zm-.876,3H27.566l-.25-2H30.77Zm.042,1,.083,2H27.941l-.25-2Zm1,0H35.1l-.083,2H31.979ZM36.1,63h3.2l-.25,2H36.021Zm.042-1,.083-2h3.454l-.25,2Zm4.545-2h2.944l-.416,2H40.441Zm.125-1,.25-2H44.26l-.416,2Zm-1.008,0H36.271l.083-2h3.7ZM36.4,56l.083-2h3.954l-.25,2Zm-1,0H31.6l-.083-2h3.957ZM30.6,56H26.816l-.25-2H30.52Zm.042,1,.083,2H27.191l-.25-2Zm-4.462,2h-3.2l-.471-2h3.42Zm.125,1,.25,2H23.69l-.471-2Zm16.285,5H40.066l.25-2H43.01Zm1.875-9H41.191l.25-2h3.444Zm-18.91-2,.25,2h-3.53l-.471-2ZM27.5,71.5A1.5,1.5,0,1,1,26,70,1.5,1.5,0,0,1,27.5,71.5Zm14,0A1.5,1.5,0,1,1,40,70,1.5,1.5,0,0,1,41.5,71.5Z" transform="translate(-16 -48)"/><circle class="a" cx="0.5" cy="0.5" r="0.5" transform="translate(10 22.986)"/><circle class="a" cx="0.5" cy="0.5" r="0.5" transform="translate(24 22.986)"/></svg>