<svg xmlns="http://www.w3.org/2000/svg" width="18.149" height="26.156" viewBox="0 0 18.149 26.156"><defs><style>.a{fill:#db0000;}</style></defs><path class="a" d="M16.548,2.669h-4.27V1.6a1.6,1.6,0,0,0-1.6-1.6h-3.2a1.6,1.6,0,0,0-1.6,1.6V2.669H1.6A1.6,1.6,0,0,0,0,4.27V6.939H1.068V24.554a1.6,1.6,0,0,0,1.6,1.6H15.48a1.6,1.6,0,0,0,1.6-1.6V6.939h1.068V4.27a1.6,1.6,0,0,0-1.6-1.6ZM6.939,1.6a.534.534,0,0,1,.534-.534h3.2a.534.534,0,0,1,.534.534V2.669H6.939Zm9.075,22.953a.534.534,0,0,1-.534.534H2.669a.534.534,0,0,1-.534-.534V6.939H16.014ZM17.081,5.872H1.068V4.27A.534.534,0,0,1,1.6,3.737H16.548a.534.534,0,0,1,.534.534Zm0,0"/><path class="a" d="M201.678,177.383a.533.533,0,0,0,.534-.534V165.106a.534.534,0,1,0-1.068,0v11.744a.533.533,0,0,0,.534.533Zm0,0" transform="translate(-189.401 -154.964)"/><path class="a" d="M146.823,177.383a.534.534,0,0,0,.534-.534V165.106a.534.534,0,1,0-1.068,0v11.744A.533.533,0,0,0,146.823,177.383Zm0,0" transform="translate(-137.749 -154.964)"/><path class="a" d="M91.963,177.383a.533.533,0,0,0,.534-.534V165.106a.534.534,0,1,0-1.068,0v11.744a.533.533,0,0,0,.534.533Zm0,0" transform="translate(-86.092 -154.964)"/></svg>