<svg xmlns="http://www.w3.org/2000/svg" width="15.598" height="17.861" viewBox="0 0 15.598 17.861"><defs><style>.a{fill:none;stroke:#707070;}</style></defs><g transform="translate(0.505 0.5)"><g transform="translate(3.063)"><g transform="translate(0)"><path class="a" d="M115.021,0a4.23,4.23,0,1,0,4.23,4.23A4.241,4.241,0,0,0,115.021,0Z" transform="translate(-110.791)"/></g></g><g transform="translate(0 9.332)"><g transform="translate(0)"><path class="a" d="M38.717,250.918a3.943,3.943,0,0,0-.425-.776,5.258,5.258,0,0,0-3.639-2.291.779.779,0,0,0-.536.129,4.509,4.509,0,0,1-5.32,0,.693.693,0,0,0-.536-.129,5.22,5.22,0,0,0-3.639,2.291,4.546,4.546,0,0,0-.425.776.393.393,0,0,0,.018.351,7.373,7.373,0,0,0,.5.739,7.021,7.021,0,0,0,.85.961,11.07,11.07,0,0,0,.85.739,8.424,8.424,0,0,0,10.049,0,8.121,8.121,0,0,0,.85-.739,8.531,8.531,0,0,0,.85-.961,6.479,6.479,0,0,0,.5-.739A.315.315,0,0,0,38.717,250.918Z" transform="translate(-24.165 -247.841)"/></g></g></g></svg>